<?xml version="1.0" encoding="utf-8"?>
<!-- Generator: Adobe Illustrator 15.1.0, SVG Export Plug-In . SVG Version: 6.00 Build 0)  -->
<!DOCTYPE svg PUBLIC "-//W3C//DTD SVG 1.1//EN" "http://www.w3.org/Graphics/SVG/1.1/DTD/svg11.dtd">
<svg version="1.1" id="Layer_1" xmlns:sketch="http://www.bohemiancoding.com/sketch/ns"
	 xmlns="http://www.w3.org/2000/svg" xmlns:xlink="http://www.w3.org/1999/xlink" x="0px" y="0px" width="800px" height="600px"
	 viewBox="0 0 800 600" enable-background="new 0 0 800 600" xml:space="preserve">
<title>code-island-logo-light</title>
<desc>Created with Sketch.</desc>
<g id="Page-1" sketch:type="MSPage">
	<g id="code-island-logo-light" sketch:type="MSArtboardGroup">
		<g id="Group" transform="translate(59.000000, 91.000000)" sketch:type="MSLayerGroup">
			<g id="Lighthouse" sketch:type="MSShapeGroup">
				<path id="Tower" fill="#7AB5D6" d="M109,347.851c20.194,0.064,39.273,0.149,52,0.149c-29.25-98.5-26-250-26-250H57
					c0,0,3.25,151-26,250c12.727-0.206,31.806-0.242,52-0.214v-27.644c0,0,0-25.143,13-25.143s13,25.143,13,25.143V347.851
					L109,347.851z M88,151v35h16v-35H88z"/>
				<path id="Lense" fill="#FEDD44" d="M93,21l-8.5,19v55h22.629V40L99,21H93z M115,21l15,19v55h-19V40l-8-19H115z M77,21L62,40.086
					V95h18.5V40L89,21H77z"/>
				<path id="Cap" fill="#7AB5D6" d="M77,18V7l19-6.5L115,7v11H77z"/>
			</g>
			<path id="CODE" sketch:type="MSShapeGroup" fill="#444444" d="M295.636,213.468l-16.072-16.236
				c-9.02,8.2-17.056,13.448-30.176,13.448c-19.68,0-33.292-16.4-33.292-36.08v-0.328c0-19.68,13.94-35.752,33.292-35.752
				c11.48,0,20.5,4.92,29.356,12.956l16.072-18.532c-10.66-10.496-23.616-17.712-45.264-17.712c-35.26,0-59.86,26.732-59.86,59.368
				v0.328c0,32.964,25.092,59.04,58.876,59.04C270.708,233.968,283.828,226.096,295.636,213.468L295.636,213.468z M432.74,174.6
				v-0.328c0-32.636-25.42-59.04-60.844-59.04c-35.424,0-61.172,26.732-61.172,59.368v0.328c0,32.636,25.42,59.04,60.844,59.04
				C406.992,233.968,432.74,207.236,432.74,174.6L432.74,174.6z M406.336,174.928c0,19.68-14.104,35.752-34.439,35.752
				c-20.337,0-34.769-16.4-34.769-36.08v-0.328c0-19.68,14.104-35.752,34.44-35.752s34.768,16.4,34.768,36.08V174.928z
				 M560.988,174.6v-0.328c0-32.308-24.929-57.072-61.008-57.072h-44.772V232h44.772C536.06,232,560.988,206.908,560.988,174.6
				L560.988,174.6z M534.584,174.928c0,20.336-13.94,34.276-34.604,34.276h-19.517v-69.208h19.517
				c20.663,0,34.604,14.268,34.604,34.604V174.928z M670.868,232v-22.468h-62.32v-24.108h54.12v-22.468h-54.12v-23.288h61.5V117.2
				h-86.592V232H670.868z"/>
			<path id="ISLAND" sketch:type="MSShapeGroup" fill="#444444" d="M195.568,258.4V348h10.112v-89.6H195.568z M239.728,280.8
				c0-8.191,7.424-14.592,19.072-14.592c9.216,0,17.536,2.944,25.856,9.728l5.888-7.808c-9.088-7.296-18.432-11.008-31.488-11.008
				c-17.024,0-29.44,10.24-29.44,24.576c0,14.848,9.472,21.504,30.08,25.983c18.816,3.969,23.296,8.704,23.296,17.152
				c0,9.088-7.936,15.36-19.968,15.36c-12.416,0-21.376-4.225-30.72-12.673l-6.272,7.425c10.752,9.6,22.4,14.336,36.608,14.336
				c17.792,0,30.592-9.984,30.592-25.473c0-13.823-9.216-21.12-29.184-25.472C244.336,294.112,239.728,289.376,239.728,280.8
				L239.728,280.8z M313.84,348h60.544v-9.344h-50.432V258.4H313.84V348z M435.696,257.76h-9.473L385.392,348h10.368l10.624-23.68
				h48.769L465.648,348h10.88L435.696,257.76z M451.184,315.232h-40.832l20.48-45.696L451.184,315.232z M560.112,330.208
				L503.664,258.4h-9.472V348h9.855v-73.472L561.904,348h8.063v-89.6h-9.855V330.208z M674.032,303.072
				c0-25.345-19.456-44.672-47.616-44.672h-31.104V348h31.104C654.576,348,674.032,328.416,674.032,303.072L674.032,303.072z
				 M663.536,303.328c0,19.968-14.464,35.328-37.12,35.328h-20.992v-70.912h20.992C649.072,267.744,663.536,283.36,663.536,303.328
				L663.536,303.328z"/>
			<path id="A-CODE-FOR-AMERICA-P" sketch:type="MSShapeGroup" fill="#444444" d="M40.416,384.21h-2.812L25.482,411h3.078
				l3.154-7.03h14.478l3.116,7.03h3.23L40.416,384.21z M45.014,401.272H32.892l6.08-13.566L45.014,401.272z M91.982,406.782
				l-1.976-1.938c-2.546,2.433-4.94,3.838-8.588,3.838c-5.852,0-10.298-4.825-10.298-11.02s4.408-10.944,10.298-10.944
				c3.61,0,6.118,1.521,8.36,3.648l2.052-2.204c-2.66-2.508-5.548-4.218-10.374-4.218c-7.828,0-13.452,6.193-13.452,13.794
				c0,7.676,5.662,13.718,13.338,13.718C86.168,411.456,89.208,409.594,91.982,406.782L91.982,406.782z M123.18,397.662
				c0-7.372-5.434-13.718-13.528-13.718c-8.094,0-13.604,6.422-13.604,13.794s5.434,13.718,13.528,13.718
				C117.67,411.456,123.18,405.034,123.18,397.662L123.18,397.662z M120.064,397.738c0,6.08-4.332,10.943-10.412,10.943
				s-10.488-4.939-10.488-11.02s4.332-10.944,10.412-10.944S120.064,391.658,120.064,397.738L120.064,397.738z M152.896,397.662
				c0-7.524-5.776-13.262-14.136-13.262h-9.234V411h9.234C147.12,411,152.896,405.186,152.896,397.662L152.896,397.662z
				 M149.78,397.738c0,5.928-4.294,10.487-11.02,10.487h-6.232v-21.052h6.232C145.486,387.174,149.78,391.81,149.78,397.738
				L149.78,397.738z M178.47,384.4h-19.228V411h19.418v-2.736h-16.416v-9.31h14.516v-2.736h-14.516v-9.082h16.226V384.4z
				 M215.216,384.4h-19.114V411h3.002v-11.59h14.402v-2.736h-14.402v-9.5h16.112V384.4z M246.984,397.662
				c0-7.372-5.434-13.718-13.528-13.718c-8.094,0-13.604,6.422-13.604,13.794s5.434,13.718,13.528,13.718
				C241.474,411.456,246.984,405.034,246.984,397.662L246.984,397.662z M243.868,397.738c0,6.08-4.332,10.943-10.412,10.943
				s-10.488-4.939-10.488-11.02s4.332-10.944,10.412-10.944S243.868,391.658,243.868,397.738L243.868,397.738z M275.332,411
				l-8.17-10.868c4.18-0.76,7.22-3.344,7.22-7.79c0-4.788-3.762-7.941-9.614-7.941H253.33V411h3.002v-10.336h7.6L271.646,411
				H275.332z M271.342,392.456c0,3.458-2.85,5.51-6.84,5.51h-8.17v-10.792h8.208C268.834,387.174,271.342,389.15,271.342,392.456
				L271.342,392.456z M304.858,384.21h-2.812L289.924,411h3.078l3.154-7.03h14.478l3.116,7.03h3.23L304.858,384.21z
				 M309.456,401.272h-12.122l6.08-13.566L309.456,401.272z M344.682,389.454V411h3.002v-26.6h-3.04l-9.689,14.516l-9.69-14.516
				h-3.04V411h2.926v-21.508l9.69,14.212h0.152L344.682,389.454z M374.436,384.4h-19.228V411h19.418v-2.736H358.21v-9.31h14.516
				v-2.736H358.21v-9.082h16.226V384.4z M402.67,411l-8.17-10.868c4.18-0.76,7.22-3.344,7.22-7.79c0-4.788-3.762-7.941-9.613-7.941
				h-11.438V411h3.002v-10.336h7.6L398.984,411H402.67z M398.68,392.456c0,3.458-2.85,5.51-6.84,5.51h-8.17v-10.792h8.208
				C396.172,387.174,398.68,389.15,398.68,392.456L398.68,392.456z M408.408,384.4V411h3.002v-26.6H408.408z M442,406.782
				l-1.976-1.938c-2.547,2.433-4.94,3.838-8.589,3.838c-5.852,0-10.298-4.825-10.298-11.02s4.408-10.944,10.298-10.944
				c3.61,0,6.118,1.521,8.36,3.648l2.052-2.204c-2.66-2.508-5.548-4.218-10.374-4.218c-7.827,0-13.451,6.193-13.451,13.794
				c0,7.676,5.661,13.718,13.338,13.718C436.186,411.456,439.226,409.594,442,406.782L442,406.782z M459.898,384.21h-2.812
				L444.964,411h3.078l3.154-7.03h14.478l3.116,7.03h3.229L459.898,384.21z M464.496,401.272h-12.122l6.08-13.566L464.496,401.272z
				 M508.576,392.874c0-5.282-3.952-8.474-9.956-8.474h-9.956V411h3.002v-9.386h6.46
				C503.788,401.614,508.576,398.65,508.576,392.874L508.576,392.874z M505.536,392.988c0,3.534-2.888,5.89-7.296,5.89h-6.574
				v-11.704h6.726C502.686,387.174,505.536,389.15,505.536,392.988L505.536,392.988z M526.702,384.21h-2.812L511.768,411h3.078
				l3.154-7.03h14.479l3.115,7.03h3.23L526.702,384.21z M531.3,401.272h-12.122l6.08-13.566L531.3,401.272z M566.07,411
				l-8.17-10.868c4.18-0.76,7.22-3.344,7.22-7.79c0-4.788-3.762-7.941-9.614-7.941h-11.438V411h3.002v-10.336h7.6L562.384,411
				H566.07z M562.08,392.456c0,3.458-2.85,5.51-6.84,5.51h-8.17v-10.792h8.208C559.572,387.174,562.08,389.15,562.08,392.456
				L562.08,392.456z M581.612,387.174h8.93V384.4h-20.9v2.773h8.931V411h3.04V387.174z M615.736,405.718L598.979,384.4h-2.812V411
				h2.926v-21.812L616.268,411h2.395v-26.6h-2.926V405.718z M645.414,384.4h-19.229V411h19.418v-2.736h-16.416v-9.31h14.517v-2.736
				h-14.517v-9.082h16.227V384.4z M673.648,411l-8.17-10.868c4.18-0.76,7.22-3.344,7.22-7.79c0-4.788-3.763-7.941-9.614-7.941
				h-11.438V411h3.002v-10.336h7.6L669.962,411H673.648z M669.658,392.456c0,3.458-2.851,5.51-6.84,5.51h-8.17v-10.792h8.208
				C667.15,387.174,669.658,389.15,669.658,392.456L669.658,392.456z"/>
		</g>
	</g>
</g>
</svg>
