<?xml version="1.0" encoding="utf-8"?>
<!-- Generator: Adobe Illustrator 15.1.0, SVG Export Plug-In  -->
<!DOCTYPE svg PUBLIC "-//W3C//DTD SVG 1.1//EN" "http://www.w3.org/Graphics/SVG/1.1/DTD/svg11.dtd" [
	<!ENTITY ns_flows "http://ns.adobe.com/Flows/1.0/">
]>
<svg version="1.1"
	 xmlns="http://www.w3.org/2000/svg" xmlns:xlink="http://www.w3.org/1999/xlink" xmlns:a="http://ns.adobe.com/AdobeSVGViewerExtensions/3.0/"
	 x="0px" y="0px" width="288px" height="288px" viewBox="-59.076 -16.332 288 288"
	 overflow="visible" enable-background="new -59.076 -16.332 288 288" xml:space="preserve">
<defs>
</defs>
<path fill="#4A4C49" d="M22.047,154.154c-2.939,0-5.233,1.205-6.881,3.613c-1.646,2.408-2.47,5.727-2.47,9.959
	c0,8.797,3.347,13.195,10.038,13.195c2.023,0,3.982-0.281,5.879-0.844c1.898-0.562,3.805-1.24,5.723-2.033v10.445
	c-3.815,1.689-8.13,2.533-12.945,2.533c-6.901,0-12.191-2.002-15.871-6.004C1.84,181.016,0,175.23,0,167.662
	c0-4.732,0.892-8.891,2.674-12.477c1.783-3.586,4.348-6.342,7.693-8.27s7.28-2.893,11.805-2.893c4.941,0,9.662,1.072,14.166,3.221
	l-3.783,9.725c-1.689-0.793-3.379-1.459-5.066-2.002C25.799,154.426,23.984,154.154,22.047,154.154z"/>
<path fill="#4A4C49" d="M87.629,167.477c0,7.691-1.887,13.539-5.66,17.543c-3.773,4.002-9.298,6.004-16.574,6.004
	c-7.172,0-12.67-2.012-16.496-6.035c-3.824-4.023-5.737-9.881-5.737-17.574c0-7.609,1.901-13.42,5.706-17.434
	c3.805-4.012,9.336-6.021,16.591-6.021c7.275,0,12.789,1.992,16.542,5.973C85.754,153.914,87.629,159.762,87.629,167.477z
	 M56.17,167.477c0,8.84,3.075,13.258,9.225,13.258c3.128,0,5.447-1.074,6.958-3.221c1.513-2.146,2.268-5.494,2.268-10.037
	c0-4.566-0.767-7.938-2.298-10.115c-1.533-2.18-3.82-3.27-6.864-3.27C59.266,154.092,56.17,158.553,56.17,167.477z"/>
<path fill="#4A4C49" d="M136.293,166.568c0,7.631-2.1,13.51-6.301,17.637c-4.201,4.129-10.105,6.193-17.715,6.193H97.486V144.68
	h15.822c7.338,0,13.004,1.875,16.996,5.629C134.297,154.061,136.293,159.48,136.293,166.568z M123.473,167.006
	c0-4.189-0.83-7.295-2.486-9.318c-1.658-2.021-4.176-3.033-7.553-3.033h-3.596v25.611h2.752c3.754,0,6.504-1.088,8.256-3.266
	C122.598,174.82,123.473,171.488,123.473,167.006z"/>
<path fill="#4A4C49" d="M173.232,190.398h-27.145V144.68h27.145v9.912h-14.791v7.193h13.695v9.912h-13.695v8.631h14.791V190.398z"/>
<path fill="#4A4C49" d="M0,234.296v-38.142h4.436v38.142H0z"/>
<path fill="#4A4C49" d="M36.42,224.147c0,3.355-1.219,5.975-3.652,7.852c-2.436,1.879-5.74,2.818-9.914,2.818
	c-4.521,0-8-0.583-10.436-1.747v-4.28c1.565,0.663,3.27,1.186,5.113,1.567c1.844,0.383,3.67,0.573,5.478,0.573
	c2.957,0,5.183-0.562,6.68-1.681c1.496-1.126,2.243-2.685,2.243-4.685c0-1.323-0.265-2.404-0.797-3.249
	c-0.528-0.842-1.415-1.621-2.66-2.335c-1.242-0.714-3.136-1.521-5.674-2.425c-3.547-1.271-6.082-2.775-7.604-4.514
	c-1.522-1.739-2.283-4.009-2.283-6.81c0-2.939,1.104-5.278,3.313-7.018s5.131-2.609,8.767-2.609c3.791,0,7.277,0.696,10.461,2.087
	l-1.384,3.86c-3.148-1.319-6.208-1.981-9.182-1.981c-2.349,0-4.183,0.504-5.504,1.512c-1.323,1.011-1.984,2.41-1.984,4.201
	c0,1.321,0.244,2.406,0.731,3.25c0.486,0.843,1.309,1.618,2.465,2.321c1.156,0.705,2.926,1.481,5.309,2.335
	c4,1.426,6.753,2.957,8.258,4.59C35.667,219.418,36.42,221.539,36.42,224.147z"/>
<path fill="#4A4C49" d="M43.418,234.296v-38.142h4.434v34.124h16.827v4.018H43.418z"/>
<path fill="#4A4C49" d="M97.974,234.296l-4.748-12.13H77.938l-4.695,12.13h-4.487l15.08-38.298h3.73l15.001,38.298H97.974z
	 M91.843,218.173l-4.436-11.817c-0.572-1.498-1.164-3.331-1.772-5.505c-0.383,1.67-0.932,3.506-1.646,5.505l-4.485,11.817H91.843z"
	/>
<path fill="#4A4C49" d="M137.602,234.296h-5.062l-20.844-32.011h-0.209c0.278,3.757,0.418,7.2,0.418,10.33v21.681h-4.096v-38.142
	h5.009l20.792,31.882h0.209c-0.035-0.471-0.112-1.979-0.235-4.526c-0.122-2.549-0.166-4.371-0.129-5.467v-21.889h4.146V234.296z"/>
<path fill="#4A4C49" d="M173.646,214.861c0,6.295-1.71,11.108-5.128,14.44c-3.415,3.33-8.334,4.994-14.753,4.994h-10.565v-38.142
	h11.688c5.932,0,10.54,1.645,13.826,4.93C172,204.372,173.646,208.966,173.646,214.861z M168.948,215.017
	c0-4.974-1.247-8.722-3.743-11.243c-2.496-2.522-6.205-3.784-11.127-3.784h-6.444v30.472h5.401c5.287,0,9.262-1.299,11.922-3.902
	C167.617,223.961,168.948,220.111,168.948,215.017z"/>
<path fill="#7BB5D6" d="M159.113,98.498c-41.673,34.096-56.826,18.942-56.826,18.942c-7.577-3.508-11.365-75.769-7.577-83.345
	c2.396-4.793,7.577-3.789,22.73-3.789V22.73c-15.153,0-20.334,1.004-22.73-3.789C90.922,11.365,90.922,3.788,90.922,0h-7.577
	c0,3.788,0,11.365-3.788,18.941c-2.396,4.793-7.577,3.789-22.73,3.789v7.576c15.153,0,20.335-1.004,22.73,3.789
	c3.788,7.576,0,79.556-7.577,83.345c0,0-15.153,15.153-56.826-18.942c0,0,3.789-3.788,7.577-3.788C11.365,94.71,0,87.133,0,87.133
	s7.577,11.365,7.577,22.73c0-3.788,3.788-7.577,3.788-7.577c18.942,26.52,64.402,34.096,64.402,34.096
	c11.365,3.789,11.365,7.577,11.365,7.577s0-3.788,11.365-7.577c0,0,45.461-7.576,64.403-34.096c0,0,3.788,3.789,3.788,7.577
	c0-11.365,7.577-22.73,7.577-22.73s-7.577,7.577-22.73,7.577C155.324,94.71,159.113,98.498,159.113,98.498z"/>
</svg>
